<svg xmlns="http://www.w3.org/2000/svg" xmlns:xlink="http://www.w3.org/1999/xlink" width="2920" zoomAndPan="magnify" viewBox="0 0 2190 809.999993" height="1080" preserveAspectRatio="xMidYMid meet" version="1.0"><defs><g/><clipPath id="0655c54ae8"><path d="M 0 95 L 852.75 95 L 852.75 715 L 0 715 Z M 0 95 " clip-rule="nonzero"/></clipPath><clipPath id="67eeeb4db6"><path d="M 314 39 L 1239 39 L 1239 810 L 314 810 Z M 314 39 " clip-rule="nonzero"/></clipPath><clipPath id="66c8911d74"><path d="M 732.019531 39.691406 L 1238.792969 329.832031 L 821.6875 1058.371094 L 314.910156 768.230469 Z M 732.019531 39.691406 " clip-rule="nonzero"/></clipPath><clipPath id="d63eb06697"><path d="M 0.878906 0.601562 L 924.878906 0.601562 L 924.878906 771 L 0.878906 771 Z M 0.878906 0.601562 " clip-rule="nonzero"/></clipPath><clipPath id="4fb8e5a4c4"><path d="M 418.019531 0.691406 L 924.792969 290.832031 L 507.6875 1019.371094 L 0.910156 729.230469 Z M 418.019531 0.691406 " clip-rule="nonzero"/></clipPath><clipPath id="69dd66eb31"><rect x="0" width="925" y="0" height="771"/></clipPath></defs><g clip-path="url(#0655c54ae8)"><path fill="#000000" d="M 776.003906 228.246094 L 626.003906 228.246094 L 573.558594 131.289062 C 572.109375 128.613281 570.484375 126.042969 568.691406 123.582031 C 566.894531 121.121094 564.945312 118.789062 562.835938 116.589844 C 560.730469 114.390625 558.484375 112.339844 556.105469 110.441406 C 553.722656 108.542969 551.222656 106.808594 548.609375 105.246094 C 545.996094 103.679688 543.289062 102.296875 540.492188 101.09375 C 537.691406 99.894531 534.824219 98.882812 531.890625 98.066406 C 528.957031 97.246094 525.980469 96.628906 522.960938 96.210938 C 519.945312 95.789062 516.914062 95.574219 513.867188 95.5625 L 339.734375 95.5625 C 336.636719 95.566406 333.554688 95.78125 330.484375 96.207031 C 327.414062 96.632812 324.390625 97.261719 321.40625 98.101562 C 318.421875 98.9375 315.511719 99.972656 312.667969 101.207031 C 309.828125 102.441406 307.082031 103.863281 304.433594 105.472656 C 301.785156 107.082031 299.257812 108.863281 296.851562 110.8125 C 294.445312 112.765625 292.183594 114.875 290.066406 117.132812 C 287.945312 119.394531 285.992188 121.789062 284.199219 124.316406 C 282.40625 126.84375 280.792969 129.480469 279.359375 132.230469 L 229.390625 228.246094 L 196.132812 228.246094 C 196.105469 227.5625 196.046875 226.882812 195.953125 226.207031 C 195.859375 225.527344 195.734375 224.859375 195.578125 224.191406 C 195.421875 223.527344 195.234375 222.871094 195.015625 222.222656 C 194.796875 221.578125 194.546875 220.941406 194.265625 220.316406 C 193.984375 219.695312 193.675781 219.085938 193.335938 218.492188 C 192.996094 217.898438 192.632812 217.320312 192.238281 216.761719 C 191.84375 216.203125 191.421875 215.667969 190.976562 215.148438 C 190.53125 214.628906 190.0625 214.132812 189.570312 213.660156 C 189.078125 213.1875 188.5625 212.738281 188.027344 212.3125 C 187.488281 211.890625 186.933594 211.492188 186.359375 211.121094 C 185.785156 210.75 185.195312 210.40625 184.589844 210.09375 C 183.980469 209.777344 183.363281 209.496094 182.726562 209.238281 C 182.09375 208.984375 181.449219 208.761719 180.792969 208.566406 C 180.136719 208.375 179.472656 208.214844 178.800781 208.082031 C 178.128906 207.953125 177.453125 207.855469 176.773438 207.792969 C 176.09375 207.726562 175.410156 207.695312 174.726562 207.695312 L 163.214844 207.695312 C 162.746094 206.519531 162.113281 205.441406 161.320312 204.457031 C 160.523438 203.472656 159.601562 202.628906 158.550781 201.921875 C 157.503906 201.214844 156.375 200.675781 155.164062 200.308594 C 153.953125 199.941406 152.714844 199.761719 151.449219 199.765625 L 120.152344 199.765625 C 118.886719 199.765625 117.652344 199.953125 116.445312 200.320312 C 115.234375 200.691406 114.105469 201.226562 113.058594 201.933594 C 112.011719 202.640625 111.085938 203.484375 110.292969 204.464844 C 109.496094 205.449219 108.859375 206.523438 108.382812 207.695312 L 97.214844 207.695312 C 96.53125 207.695312 95.851562 207.726562 95.171875 207.792969 C 94.492188 207.859375 93.816406 207.953125 93.148438 208.085938 C 92.476562 208.214844 91.8125 208.375 91.160156 208.570312 C 90.503906 208.761719 89.863281 208.988281 89.230469 209.242188 C 88.59375 209.496094 87.976562 209.78125 87.371094 210.097656 C 86.765625 210.410156 86.175781 210.753906 85.601562 211.125 C 85.03125 211.496094 84.476562 211.894531 83.941406 212.320312 C 83.40625 212.742188 82.894531 213.191406 82.402344 213.667969 C 81.914062 214.140625 81.445312 214.636719 81 215.15625 C 80.558594 215.671875 80.140625 216.210938 79.746094 216.769531 C 79.355469 217.328125 78.992188 217.90625 78.65625 218.5 C 78.316406 219.09375 78.011719 219.699219 77.734375 220.324219 C 77.453125 220.945312 77.207031 221.582031 76.988281 222.230469 C 76.773438 222.875 76.585938 223.53125 76.433594 224.195312 C 76.277344 224.863281 76.15625 225.53125 76.066406 226.210938 C 75.976562 226.886719 75.917969 227.566406 75.894531 228.246094 C 74.648438 228.261719 73.402344 228.304688 72.15625 228.378906 C 70.910156 228.453125 69.667969 228.558594 68.429688 228.695312 C 67.191406 228.828125 65.953125 228.996094 64.722656 229.191406 C 63.488281 229.386719 62.265625 229.609375 61.042969 229.867188 C 59.824219 230.121094 58.609375 230.40625 57.402344 230.71875 C 56.195312 231.035156 54.996094 231.378906 53.804688 231.75 C 52.617188 232.125 51.433594 232.527344 50.265625 232.957031 C 49.09375 233.386719 47.933594 233.84375 46.785156 234.332031 C 45.636719 234.820312 44.503906 235.332031 43.378906 235.875 C 42.257812 236.417969 41.148438 236.988281 40.050781 237.582031 C 38.957031 238.179688 37.875 238.800781 36.8125 239.449219 C 35.746094 240.101562 34.699219 240.773438 33.664062 241.476562 C 32.632812 242.175781 31.617188 242.898438 30.621094 243.648438 C 29.625 244.398438 28.648438 245.171875 27.6875 245.96875 C 26.730469 246.765625 25.789062 247.585938 24.871094 248.429688 C 23.953125 249.273438 23.054688 250.136719 22.175781 251.023438 C 21.300781 251.910156 20.445312 252.820312 19.613281 253.746094 C 18.777344 254.675781 17.96875 255.625 17.183594 256.59375 C 16.398438 257.558594 15.632812 258.546875 14.894531 259.550781 C 14.15625 260.554688 13.445312 261.578125 12.753906 262.617188 C 12.066406 263.660156 11.402344 264.714844 10.765625 265.789062 C 10.128906 266.859375 9.519531 267.945312 8.933594 269.046875 C 8.351562 270.148438 7.792969 271.265625 7.265625 272.394531 C 6.734375 273.523438 6.234375 274.664062 5.757812 275.820312 C 5.285156 276.972656 4.839844 278.136719 4.421875 279.3125 C 4.003906 280.488281 3.617188 281.671875 3.257812 282.867188 C 2.898438 284.0625 2.566406 285.261719 2.265625 286.472656 C 1.964844 287.683594 1.695312 288.902344 1.453125 290.125 C 1.210938 291.347656 1 292.578125 0.820312 293.808594 C 0.636719 295.042969 0.484375 296.28125 0.363281 297.523438 C 0.242188 298.765625 0.152344 300.007812 0.0898438 301.253906 C 0.03125 302.5 0 303.746094 0 304.992188 L 0 638.242188 C 0 639.496094 0.03125 640.753906 0.09375 642.007812 C 0.152344 643.261719 0.246094 644.515625 0.371094 645.765625 C 0.492188 647.015625 0.644531 648.261719 0.832031 649.503906 C 1.015625 650.746094 1.230469 651.980469 1.476562 653.214844 C 1.71875 654.445312 1.996094 655.671875 2.300781 656.890625 C 2.605469 658.109375 2.941406 659.316406 3.304688 660.519531 C 3.667969 661.722656 4.0625 662.914062 4.488281 664.097656 C 4.910156 665.277344 5.363281 666.449219 5.84375 667.609375 C 6.324219 668.769531 6.832031 669.917969 7.367188 671.054688 C 7.90625 672.191406 8.46875 673.3125 9.0625 674.417969 C 9.65625 675.527344 10.273438 676.621094 10.917969 677.695312 C 11.566406 678.773438 12.238281 679.835938 12.933594 680.878906 C 13.632812 681.921875 14.355469 682.949219 15.101562 683.960938 C 15.851562 684.96875 16.625 685.957031 17.421875 686.929688 C 18.21875 687.898438 19.039062 688.851562 19.882812 689.78125 C 20.726562 690.710938 21.589844 691.621094 22.480469 692.507812 C 23.367188 693.398438 24.277344 694.261719 25.207031 695.105469 C 26.136719 695.949219 27.089844 696.769531 28.058594 697.566406 C 29.03125 698.363281 30.019531 699.136719 31.027344 699.882812 C 32.039062 700.632812 33.066406 701.355469 34.109375 702.054688 C 35.152344 702.75 36.214844 703.421875 37.292969 704.070312 C 38.367188 704.714844 39.460938 705.332031 40.570312 705.925781 C 41.675781 706.515625 42.796875 707.082031 43.933594 707.617188 C 45.070312 708.15625 46.21875 708.664062 47.378906 709.144531 C 48.539062 709.625 49.710938 710.078125 50.890625 710.5 C 52.074219 710.925781 53.265625 711.316406 54.46875 711.683594 C 55.671875 712.046875 56.882812 712.382812 58.097656 712.6875 C 59.316406 712.992188 60.542969 713.269531 61.773438 713.511719 C 63.007812 713.757812 64.242188 713.972656 65.484375 714.15625 C 66.730469 714.339844 67.976562 714.496094 69.226562 714.617188 C 70.476562 714.742188 71.726562 714.832031 72.980469 714.894531 C 74.234375 714.957031 75.492188 714.988281 76.746094 714.988281 L 776.003906 714.988281 C 777.257812 714.988281 778.515625 714.957031 779.769531 714.894531 C 781.023438 714.832031 782.273438 714.742188 783.523438 714.617188 C 784.773438 714.496094 786.019531 714.339844 787.261719 714.15625 C 788.507812 713.972656 789.742188 713.757812 790.976562 713.511719 C 792.207031 713.269531 793.433594 712.992188 794.652344 712.6875 C 795.867188 712.382812 797.078125 712.046875 798.28125 711.683594 C 799.484375 711.316406 800.675781 710.925781 801.859375 710.5 C 803.039062 710.078125 804.210938 709.625 805.371094 709.144531 C 806.53125 708.664062 807.679688 708.15625 808.816406 707.617188 C 809.953125 707.082031 811.074219 706.515625 812.179688 705.925781 C 813.289062 705.332031 814.382812 704.714844 815.457031 704.070312 C 816.535156 703.421875 817.597656 702.75 818.640625 702.054688 C 819.683594 701.355469 820.710938 700.632812 821.722656 699.882812 C 822.730469 699.136719 823.71875 698.363281 824.691406 697.566406 C 825.660156 696.769531 826.613281 695.949219 827.542969 695.105469 C 828.472656 694.261719 829.382812 693.398438 830.269531 692.507812 C 831.160156 691.621094 832.023438 690.710938 832.867188 689.78125 C 833.710938 688.851562 834.53125 687.898438 835.328125 686.929688 C 836.125 685.957031 836.898438 684.96875 837.648438 683.960938 C 838.394531 682.949219 839.117188 681.921875 839.816406 680.878906 C 840.511719 679.835938 841.183594 678.773438 841.832031 677.695312 C 842.476562 676.621094 843.09375 675.527344 843.6875 674.417969 C 844.28125 673.3125 844.84375 672.191406 845.382812 671.054688 C 845.917969 669.917969 846.425781 668.769531 846.90625 667.609375 C 847.386719 666.449219 847.839844 665.277344 848.261719 664.097656 C 848.6875 662.914062 849.082031 661.722656 849.445312 660.519531 C 849.808594 659.316406 850.144531 658.109375 850.449219 656.890625 C 850.753906 655.671875 851.03125 654.445312 851.273438 653.214844 C 851.519531 651.980469 851.734375 650.746094 851.917969 649.503906 C 852.105469 648.261719 852.257812 647.015625 852.378906 645.765625 C 852.503906 644.515625 852.597656 643.261719 852.65625 642.007812 C 852.71875 640.753906 852.75 639.496094 852.75 638.242188 L 852.75 304.566406 C 852.742188 303.316406 852.707031 302.0625 852.636719 300.816406 C 852.570312 299.566406 852.46875 298.316406 852.339844 297.074219 C 852.210938 295.828125 852.054688 294.585938 851.863281 293.351562 C 851.671875 292.113281 851.453125 290.882812 851.203125 289.65625 C 850.953125 288.429688 850.671875 287.210938 850.363281 285.996094 C 850.054688 284.785156 849.714844 283.578125 849.34375 282.382812 C 848.976562 281.1875 848.578125 280 848.152344 278.824219 C 847.726562 277.648438 847.269531 276.484375 846.785156 275.328125 C 846.300781 274.175781 845.789062 273.03125 845.25 271.902344 C 844.710938 270.773438 844.144531 269.660156 843.550781 268.558594 C 842.957031 267.457031 842.335938 266.367188 841.6875 265.296875 C 841.039062 264.226562 840.367188 263.171875 839.667969 262.132812 C 838.96875 261.09375 838.246094 260.074219 837.496094 259.074219 C 836.75 258.070312 835.976562 257.085938 835.179688 256.121094 C 834.382812 255.15625 833.5625 254.210938 832.71875 253.285156 C 831.875 252.359375 831.007812 251.457031 830.121094 250.574219 C 829.234375 249.691406 828.324219 248.832031 827.394531 247.992188 C 826.464844 247.15625 825.515625 246.339844 824.546875 245.550781 C 823.578125 244.757812 822.589844 243.988281 821.582031 243.246094 C 820.574219 242.503906 819.550781 241.785156 818.507812 241.09375 C 817.46875 240.398438 816.410156 239.730469 815.332031 239.089844 C 814.257812 238.449219 813.167969 237.835938 812.066406 237.246094 C 810.960938 236.65625 809.839844 236.097656 808.707031 235.5625 C 807.578125 235.03125 806.433594 234.527344 805.273438 234.046875 C 804.117188 233.570312 802.949219 233.121094 801.769531 232.703125 C 800.59375 232.28125 799.402344 231.890625 798.207031 231.527344 C 797.007812 231.167969 795.800781 230.832031 794.585938 230.53125 C 793.371094 230.226562 792.152344 229.953125 790.921875 229.710938 C 789.695312 229.46875 788.460938 229.253906 787.222656 229.070312 C 785.988281 228.886719 784.746094 228.734375 783.5 228.613281 C 782.253906 228.492188 781.003906 228.398438 779.753906 228.339844 C 778.503906 228.277344 777.253906 228.246094 776.003906 228.246094 Z M 426.375 654.613281 C 422.960938 654.617188 419.550781 654.53125 416.144531 654.367188 C 412.734375 654.199219 409.332031 653.953125 405.9375 653.617188 C 402.539062 653.285156 399.15625 652.867188 395.777344 652.371094 C 392.402344 651.871094 389.042969 651.289062 385.695312 650.625 C 382.347656 649.960938 379.019531 649.214844 375.707031 648.386719 C 372.398438 647.558594 369.109375 646.648438 365.84375 645.660156 C 362.578125 644.671875 359.335938 643.601562 356.125 642.453125 C 352.910156 641.304688 349.726562 640.078125 346.574219 638.773438 C 343.421875 637.46875 340.300781 636.085938 337.214844 634.628906 C 334.128906 633.171875 331.082031 631.640625 328.070312 630.03125 C 325.0625 628.421875 322.09375 626.742188 319.164062 624.988281 C 316.238281 623.238281 313.355469 621.414062 310.515625 619.519531 C 307.679688 617.621094 304.890625 615.660156 302.148438 613.628906 C 299.40625 611.597656 296.714844 609.5 294.078125 607.335938 C 291.4375 605.171875 288.855469 602.941406 286.324219 600.652344 C 283.796875 598.363281 281.324219 596.011719 278.910156 593.597656 C 276.496094 591.1875 274.144531 588.714844 271.851562 586.1875 C 269.558594 583.660156 267.328125 581.078125 265.164062 578.441406 C 262.996094 575.804688 260.898438 573.113281 258.863281 570.375 C 256.828125 567.632812 254.863281 564.847656 252.96875 562.007812 C 251.070312 559.171875 249.246094 556.292969 247.488281 553.363281 C 245.734375 550.4375 244.050781 547.46875 242.441406 544.460938 C 240.832031 541.453125 239.296875 538.40625 237.839844 535.320312 C 236.378906 532.238281 234.996094 529.117188 233.6875 525.964844 C 232.382812 522.8125 231.152344 519.632812 230 516.417969 C 228.851562 513.207031 227.78125 509.96875 226.789062 506.703125 C 225.796875 503.4375 224.886719 500.148438 224.054688 496.839844 C 223.226562 493.53125 222.476562 490.203125 221.808594 486.855469 C 221.144531 483.507812 220.558594 480.148438 220.058594 476.773438 C 219.554688 473.394531 219.136719 470.011719 218.800781 466.613281 C 218.464844 463.21875 218.214844 459.816406 218.046875 456.410156 C 217.878906 453 217.792969 449.589844 217.792969 446.175781 C 217.792969 442.765625 217.875 439.355469 218.039062 435.945312 C 218.207031 432.539062 218.457031 429.136719 218.789062 425.738281 C 219.125 422.34375 219.542969 418.957031 220.042969 415.582031 C 220.539062 412.207031 221.125 408.84375 221.789062 405.496094 C 222.453125 402.152344 223.199219 398.820312 224.027344 395.511719 C 224.855469 392.199219 225.765625 388.914062 226.753906 385.648438 C 227.746094 382.382812 228.8125 379.140625 229.964844 375.929688 C 231.113281 372.714844 232.339844 369.53125 233.644531 366.378906 C 234.949219 363.226562 236.332031 360.105469 237.789062 357.023438 C 239.246094 353.9375 240.78125 350.890625 242.390625 347.878906 C 243.996094 344.871094 245.675781 341.902344 247.429688 338.972656 C 249.183594 336.046875 251.007812 333.164062 252.90625 330.324219 C 254.800781 327.488281 256.765625 324.699219 258.796875 321.957031 C 260.828125 319.214844 262.925781 316.527344 265.089844 313.886719 C 267.253906 311.25 269.484375 308.664062 271.773438 306.136719 C 274.066406 303.609375 276.417969 301.136719 278.828125 298.722656 C 281.242188 296.308594 283.710938 293.957031 286.242188 291.664062 C 288.769531 289.371094 291.351562 287.144531 293.988281 284.980469 C 296.625 282.8125 299.316406 280.714844 302.054688 278.679688 C 304.796875 276.648438 307.585938 274.683594 310.421875 272.785156 C 313.257812 270.890625 316.140625 269.0625 319.066406 267.308594 C 321.996094 265.554688 324.960938 263.871094 327.972656 262.261719 C 330.980469 260.652344 334.027344 259.121094 337.113281 257.660156 C 340.195312 256.199219 343.316406 254.816406 346.46875 253.511719 C 349.621094 252.203125 352.804688 250.976562 356.015625 249.828125 C 359.230469 248.675781 362.46875 247.605469 365.734375 246.613281 C 369 245.625 372.285156 244.710938 375.597656 243.882812 C 378.90625 243.054688 382.234375 242.304688 385.582031 241.640625 C 388.929688 240.972656 392.289062 240.390625 395.664062 239.886719 C 399.042969 239.386719 402.425781 238.96875 405.824219 238.632812 C 409.21875 238.300781 412.621094 238.046875 416.03125 237.878906 C 419.4375 237.710938 422.847656 237.628906 426.261719 237.625 C 429.671875 237.625 433.085938 237.710938 436.492188 237.875 C 439.902344 238.042969 443.304688 238.292969 446.699219 238.628906 C 450.09375 238.960938 453.480469 239.378906 456.855469 239.878906 C 460.234375 240.378906 463.59375 240.960938 466.941406 241.628906 C 470.289062 242.292969 473.617188 243.039062 476.925781 243.871094 C 480.238281 244.699219 483.527344 245.609375 486.792969 246.597656 C 490.058594 247.589844 493.296875 248.65625 496.507812 249.808594 C 499.722656 250.957031 502.90625 252.183594 506.058594 253.488281 C 509.210938 254.792969 512.332031 256.175781 515.414062 257.636719 C 518.5 259.09375 521.546875 260.628906 524.558594 262.234375 C 527.566406 263.84375 530.535156 265.527344 533.460938 267.28125 C 536.390625 269.035156 539.273438 270.859375 542.109375 272.753906 C 544.949219 274.648438 547.738281 276.613281 550.476562 278.648438 C 553.21875 280.679688 555.910156 282.777344 558.546875 284.941406 C 561.183594 287.105469 563.769531 289.335938 566.296875 291.625 C 568.824219 293.917969 571.296875 296.269531 573.710938 298.683594 C 576.121094 301.097656 578.476562 303.566406 580.765625 306.09375 C 583.058594 308.625 585.289062 311.207031 587.453125 313.84375 C 589.617188 316.480469 591.714844 319.171875 593.75 321.910156 C 595.78125 324.652344 597.746094 327.441406 599.644531 330.277344 C 601.539062 333.117188 603.363281 335.996094 605.117188 338.925781 C 606.875 341.851562 608.554688 344.820312 610.164062 347.828125 C 611.773438 350.839844 613.304688 353.886719 614.765625 356.96875 C 616.226562 360.054688 617.609375 363.175781 618.914062 366.328125 C 620.21875 369.480469 621.449219 372.664062 622.597656 375.875 C 623.746094 379.089844 624.816406 382.328125 625.808594 385.59375 C 626.796875 388.859375 627.707031 392.144531 628.539062 395.457031 C 629.367188 398.765625 630.113281 402.09375 630.78125 405.441406 C 631.445312 408.789062 632.027344 412.148438 632.53125 415.527344 C 633.03125 418.902344 633.449219 422.285156 633.78125 425.683594 C 634.117188 429.078125 634.367188 432.480469 634.535156 435.890625 C 634.703125 439.296875 634.785156 442.707031 634.785156 446.121094 C 634.789062 449.53125 634.703125 452.941406 634.535156 456.347656 C 634.367188 459.753906 634.117188 463.15625 633.785156 466.550781 C 633.449219 469.945312 633.03125 473.332031 632.53125 476.703125 C 632.03125 480.078125 631.449219 483.4375 630.78125 486.785156 C 630.117188 490.128906 629.371094 493.457031 628.542969 496.765625 C 627.714844 500.078125 626.804688 503.363281 625.8125 506.628906 C 624.824219 509.890625 623.753906 513.128906 622.605469 516.34375 C 621.457031 519.554688 620.230469 522.734375 618.925781 525.886719 C 617.621094 529.039062 616.238281 532.15625 614.78125 535.242188 C 613.320312 538.324219 611.789062 541.371094 610.179688 544.378906 C 608.574219 547.390625 606.890625 550.355469 605.140625 553.28125 C 603.386719 556.207031 601.5625 559.089844 599.667969 561.925781 C 597.773438 564.761719 595.808594 567.550781 593.777344 570.292969 C 591.746094 573.03125 589.648438 575.722656 587.484375 578.359375 C 585.320312 580.996094 583.09375 583.578125 580.804688 586.105469 C 578.511719 588.632812 576.160156 591.105469 573.75 593.515625 C 571.339844 595.929688 568.867188 598.28125 566.339844 600.574219 C 563.816406 602.863281 561.234375 605.09375 558.597656 607.257812 C 555.960938 609.421875 553.273438 611.519531 550.53125 613.554688 C 547.792969 615.585938 545.003906 617.550781 542.167969 619.445312 C 539.332031 621.34375 536.453125 623.167969 533.527344 624.921875 C 530.601562 626.675781 527.632812 628.359375 524.625 629.96875 C 521.617188 631.578125 518.574219 633.109375 515.488281 634.570312 C 512.40625 636.03125 509.289062 637.414062 506.136719 638.71875 C 502.984375 640.023438 499.804688 641.253906 496.59375 642.402344 C 493.382812 643.554688 490.144531 644.625 486.878906 645.617188 C 483.617188 646.609375 480.328125 647.519531 477.019531 648.347656 C 473.710938 649.179688 470.382812 649.925781 467.039062 650.59375 C 463.691406 651.261719 460.332031 651.84375 456.960938 652.347656 C 453.585938 652.847656 450.199219 653.265625 446.804688 653.601562 C 443.410156 653.9375 440.011719 654.191406 436.601562 654.359375 C 433.195312 654.527344 429.785156 654.613281 426.375 654.613281 Z M 773.785156 348.226562 C 772.644531 348.230469 771.507812 348.175781 770.371094 348.066406 C 769.234375 347.957031 768.109375 347.792969 766.988281 347.574219 C 765.871094 347.351562 764.765625 347.078125 763.671875 346.75 C 762.578125 346.421875 761.507812 346.039062 760.453125 345.605469 C 759.398438 345.171875 758.367188 344.6875 757.359375 344.148438 C 756.351562 343.613281 755.375 343.03125 754.421875 342.398438 C 753.472656 341.765625 752.558594 341.089844 751.675781 340.367188 C 750.792969 339.644531 749.945312 338.882812 749.136719 338.078125 C 748.332031 337.269531 747.5625 336.429688 746.839844 335.546875 C 746.113281 334.667969 745.433594 333.753906 744.800781 332.804688 C 744.164062 331.859375 743.578125 330.882812 743.039062 329.875 C 742.5 328.871094 742.011719 327.839844 741.574219 326.789062 C 741.136719 325.734375 740.75 324.664062 740.417969 323.570312 C 740.085938 322.480469 739.808594 321.375 739.582031 320.257812 C 739.359375 319.140625 739.191406 318.011719 739.078125 316.875 C 738.964844 315.742188 738.910156 314.605469 738.90625 313.464844 C 738.90625 312.324219 738.960938 311.183594 739.074219 310.050781 C 739.183594 308.914062 739.351562 307.789062 739.574219 306.667969 C 739.792969 305.550781 740.070312 304.445312 740.402344 303.351562 C 740.730469 302.261719 741.113281 301.1875 741.550781 300.132812 C 741.988281 299.078125 742.472656 298.050781 743.011719 297.042969 C 743.546875 296.039062 744.132812 295.058594 744.765625 294.113281 C 745.402344 293.164062 746.078125 292.246094 746.804688 291.367188 C 747.527344 290.484375 748.292969 289.640625 749.097656 288.832031 C 749.90625 288.027344 750.75 287.261719 751.632812 286.539062 C 752.511719 285.816406 753.429688 285.136719 754.375 284.503906 C 755.324219 283.871094 756.300781 283.285156 757.308594 282.746094 C 758.316406 282.210938 759.34375 281.722656 760.398438 281.285156 C 761.453125 280.851562 762.527344 280.46875 763.617188 280.136719 C 764.710938 279.804688 765.816406 279.53125 766.933594 279.308594 C 768.050781 279.085938 769.179688 278.917969 770.316406 278.808594 C 771.449219 278.699219 772.585938 278.640625 773.730469 278.644531 C 774.871094 278.644531 776.007812 278.703125 777.140625 278.8125 C 778.277344 278.925781 779.402344 279.09375 780.523438 279.320312 C 781.640625 279.542969 782.746094 279.820312 783.835938 280.152344 C 784.929688 280.484375 786 280.871094 787.054688 281.308594 C 788.105469 281.746094 789.136719 282.234375 790.140625 282.773438 C 791.148438 283.3125 792.125 283.898438 793.070312 284.535156 C 794.019531 285.167969 794.933594 285.847656 795.8125 286.574219 C 796.695312 287.300781 797.535156 288.066406 798.34375 288.875 C 799.148438 289.683594 799.910156 290.527344 800.632812 291.410156 C 801.355469 292.292969 802.03125 293.210938 802.664062 294.160156 C 803.296875 295.109375 803.878906 296.085938 804.414062 297.09375 C 804.953125 298.101562 805.4375 299.132812 805.871094 300.1875 C 806.304688 301.242188 806.6875 302.316406 807.015625 303.40625 C 807.34375 304.5 807.617188 305.605469 807.839844 306.722656 C 808.058594 307.84375 808.222656 308.96875 808.332031 310.105469 C 808.441406 311.242188 808.496094 312.378906 808.492188 313.519531 C 808.492188 314.65625 808.4375 315.789062 808.324219 316.921875 C 808.214844 318.054688 808.046875 319.175781 807.824219 320.292969 C 807.605469 321.40625 807.328125 322.507812 806.996094 323.59375 C 806.667969 324.683594 806.285156 325.75 805.851562 326.800781 C 805.414062 327.851562 804.929688 328.878906 804.394531 329.878906 C 803.859375 330.882812 803.273438 331.855469 802.644531 332.800781 C 802.011719 333.746094 801.335938 334.660156 800.613281 335.539062 C 799.894531 336.417969 799.128906 337.257812 798.328125 338.0625 C 797.523438 338.863281 796.683594 339.628906 795.804688 340.347656 C 794.925781 341.070312 794.011719 341.746094 793.066406 342.378906 C 792.121094 343.007812 791.148438 343.59375 790.144531 344.128906 C 789.144531 344.664062 788.117188 345.148438 787.066406 345.585938 C 786.015625 346.019531 784.949219 346.402344 783.859375 346.730469 C 782.773438 347.0625 781.671875 347.335938 780.554688 347.558594 C 779.441406 347.78125 778.320312 347.949219 777.1875 348.058594 C 776.054688 348.171875 774.921875 348.226562 773.785156 348.226562 Z M 773.785156 348.226562 " fill-opacity="1" fill-rule="nonzero"/></g><path fill="#000000" d="M 571.683594 446.121094 C 571.683594 448.5 571.625 450.875 571.507812 453.25 C 571.390625 455.625 571.21875 457.996094 570.984375 460.363281 C 570.75 462.730469 570.460938 465.089844 570.109375 467.441406 C 569.761719 469.792969 569.355469 472.136719 568.890625 474.46875 C 568.425781 476.800781 567.90625 479.121094 567.328125 481.425781 C 566.75 483.734375 566.117188 486.023438 565.425781 488.300781 C 564.734375 490.574219 563.992188 492.832031 563.1875 495.074219 C 562.386719 497.3125 561.53125 499.53125 560.621094 501.726562 C 559.710938 503.921875 558.75 506.097656 557.730469 508.246094 C 556.714844 510.394531 555.648438 512.519531 554.527344 514.617188 C 553.40625 516.714844 552.234375 518.78125 551.011719 520.824219 C 549.789062 522.863281 548.515625 524.871094 547.195312 526.847656 C 545.875 528.824219 544.503906 530.769531 543.085938 532.679688 C 541.671875 534.589844 540.207031 536.464844 538.699219 538.300781 C 537.191406 540.140625 535.636719 541.941406 534.042969 543.703125 C 532.445312 545.464844 530.804688 547.1875 529.125 548.867188 C 527.441406 550.546875 525.71875 552.1875 523.957031 553.785156 C 522.195312 555.382812 520.394531 556.933594 518.558594 558.445312 C 516.71875 559.953125 514.84375 561.414062 512.933594 562.832031 C 511.023438 564.246094 509.082031 565.617188 507.105469 566.9375 C 505.125 568.257812 503.117188 569.53125 501.078125 570.753906 C 499.039062 571.976562 496.96875 573.148438 494.871094 574.269531 C 492.777344 575.390625 490.652344 576.457031 488.503906 577.476562 C 486.351562 578.492188 484.179688 579.457031 481.980469 580.367188 C 479.785156 581.277344 477.566406 582.132812 475.328125 582.933594 C 473.089844 583.734375 470.832031 584.480469 468.554688 585.167969 C 466.28125 585.859375 463.988281 586.492188 461.683594 587.070312 C 459.375 587.648438 457.054688 588.171875 454.722656 588.632812 C 452.390625 589.097656 450.046875 589.503906 447.695312 589.855469 C 445.34375 590.203125 442.984375 590.492188 440.617188 590.726562 C 438.25 590.960938 435.878906 591.132812 433.503906 591.25 C 431.128906 591.367188 428.753906 591.425781 426.375 591.425781 C 423.996094 591.425781 421.621094 591.367188 419.246094 591.25 C 416.871094 591.132812 414.5 590.960938 412.132812 590.726562 C 409.765625 590.492188 407.40625 590.203125 405.054688 589.855469 C 402.703125 589.503906 400.359375 589.097656 398.027344 588.632812 C 395.695312 588.171875 393.375 587.648438 391.066406 587.070312 C 388.761719 586.492188 386.46875 585.859375 384.195312 585.167969 C 381.917969 584.480469 379.660156 583.734375 377.421875 582.933594 C 375.183594 582.132812 372.964844 581.277344 370.769531 580.367188 C 368.570312 579.457031 366.398438 578.492188 364.246094 577.476562 C 362.097656 576.457031 359.972656 575.390625 357.878906 574.269531 C 355.78125 573.148438 353.710938 571.976562 351.671875 570.753906 C 349.632812 569.53125 347.625 568.257812 345.644531 566.9375 C 343.667969 565.617188 341.726562 564.246094 339.816406 562.832031 C 337.90625 561.414062 336.03125 559.953125 334.191406 558.441406 C 332.355469 556.933594 330.554688 555.382812 328.792969 553.785156 C 327.03125 552.1875 325.308594 550.546875 323.625 548.867188 C 321.945312 547.1875 320.304688 545.464844 318.707031 543.703125 C 317.113281 541.941406 315.558594 540.140625 314.050781 538.300781 C 312.542969 536.464844 311.078125 534.589844 309.660156 532.679688 C 308.246094 530.769531 306.875 528.824219 305.554688 526.847656 C 304.234375 524.871094 302.960938 522.863281 301.738281 520.824219 C 300.515625 518.78125 299.34375 516.714844 298.222656 514.617188 C 297.101562 512.519531 296.035156 510.394531 295.015625 508.246094 C 294 506.097656 293.039062 503.921875 292.128906 501.726562 C 291.21875 499.53125 290.363281 497.3125 289.558594 495.074219 C 288.757812 492.832031 288.011719 490.574219 287.324219 488.300781 C 286.632812 486.023438 286 483.734375 285.421875 481.425781 C 284.84375 479.121094 284.324219 476.800781 283.859375 474.46875 C 283.394531 472.136719 282.988281 469.792969 282.640625 467.441406 C 282.289062 465.089844 282 462.730469 281.765625 460.363281 C 281.53125 457.996094 281.359375 455.625 281.242188 453.25 C 281.125 450.875 281.066406 448.5 281.066406 446.121094 C 281.066406 443.742188 281.125 441.367188 281.242188 438.992188 C 281.359375 436.617188 281.53125 434.246094 281.765625 431.878906 C 282 429.511719 282.289062 427.152344 282.640625 424.800781 C 282.988281 422.445312 283.394531 420.105469 283.859375 417.773438 C 284.324219 415.441406 284.84375 413.121094 285.421875 410.8125 C 286 408.507812 286.632812 406.214844 287.324219 403.941406 C 288.011719 401.664062 288.757812 399.40625 289.558594 397.167969 C 290.363281 394.929688 291.21875 392.710938 292.128906 390.515625 C 293.039062 388.316406 294 386.144531 295.015625 383.992188 C 296.035156 381.84375 297.101562 379.722656 298.222656 377.625 C 299.34375 375.527344 300.515625 373.457031 301.738281 371.417969 C 302.960938 369.378906 304.234375 367.371094 305.554688 365.394531 C 306.875 363.414062 308.246094 361.472656 309.660156 359.5625 C 311.078125 357.652344 312.542969 355.777344 314.050781 353.9375 C 315.558594 352.101562 317.113281 350.300781 318.707031 348.539062 C 320.304688 346.777344 321.945312 345.054688 323.625 343.375 C 325.308594 341.691406 327.03125 340.054688 328.792969 338.457031 C 330.554688 336.859375 332.355469 335.304688 334.191406 333.796875 C 336.03125 332.289062 337.90625 330.828125 339.816406 329.410156 C 341.726562 327.992188 343.667969 326.625 345.644531 325.304688 C 347.625 323.980469 349.632812 322.710938 351.671875 321.488281 C 353.710938 320.265625 355.78125 319.09375 357.875 317.972656 C 359.972656 316.851562 362.097656 315.78125 364.246094 314.765625 C 366.398438 313.75 368.570312 312.785156 370.769531 311.875 C 372.964844 310.964844 375.183594 310.109375 377.421875 309.308594 C 379.660156 308.507812 381.917969 307.761719 384.195312 307.070312 C 386.46875 306.382812 388.761719 305.746094 391.066406 305.167969 C 393.375 304.589844 395.695312 304.070312 398.027344 303.605469 C 400.359375 303.140625 402.703125 302.734375 405.054688 302.386719 C 407.40625 302.039062 409.765625 301.746094 412.132812 301.515625 C 414.5 301.28125 416.871094 301.105469 419.246094 300.988281 C 421.621094 300.871094 423.996094 300.816406 426.375 300.816406 C 428.753906 300.816406 431.128906 300.871094 433.503906 300.988281 C 435.878906 301.105469 438.25 301.28125 440.617188 301.515625 C 442.984375 301.746094 445.34375 302.039062 447.695312 302.386719 C 450.046875 302.734375 452.390625 303.140625 454.722656 303.605469 C 457.054688 304.070312 459.375 304.589844 461.683594 305.167969 C 463.988281 305.746094 466.28125 306.382812 468.554688 307.070312 C 470.832031 307.761719 473.089844 308.507812 475.328125 309.308594 C 477.566406 310.109375 479.785156 310.964844 481.980469 311.875 C 484.179688 312.785156 486.351562 313.75 488.503906 314.765625 C 490.652344 315.78125 492.777344 316.851562 494.871094 317.972656 C 496.96875 319.09375 499.039062 320.265625 501.078125 321.488281 C 503.117188 322.710938 505.125 323.980469 507.105469 325.304688 C 509.082031 326.625 511.023438 327.992188 512.933594 329.410156 C 514.84375 330.828125 516.71875 332.289062 518.558594 333.796875 C 520.394531 335.304688 522.195312 336.859375 523.957031 338.457031 C 525.71875 340.054688 527.441406 341.691406 529.125 343.375 C 530.804688 345.054688 532.445312 346.777344 534.042969 348.539062 C 535.636719 350.300781 537.191406 352.101562 538.699219 353.9375 C 540.207031 355.777344 541.671875 357.652344 543.089844 359.5625 C 544.503906 361.472656 545.875 363.414062 547.195312 365.394531 C 548.515625 367.371094 549.789062 369.378906 551.011719 371.417969 C 552.234375 373.457031 553.40625 375.527344 554.527344 377.625 C 555.648438 379.722656 556.714844 381.84375 557.730469 383.992188 C 558.75 386.144531 559.710938 388.316406 560.621094 390.515625 C 561.53125 392.710938 562.386719 394.929688 563.1875 397.167969 C 563.992188 399.40625 564.734375 401.664062 565.425781 403.941406 C 566.117188 406.214844 566.75 408.507812 567.328125 410.8125 C 567.90625 413.121094 568.425781 415.441406 568.890625 417.773438 C 569.355469 420.105469 569.761719 422.445312 570.109375 424.800781 C 570.460938 427.152344 570.75 429.511719 570.984375 431.878906 C 571.21875 434.246094 571.390625 436.617188 571.507812 438.992188 C 571.625 441.367188 571.683594 443.742188 571.683594 446.121094 Z M 571.683594 446.121094 " fill-opacity="1" fill-rule="nonzero"/><g clip-path="url(#67eeeb4db6)"><g clip-path="url(#66c8911d74)"><g transform="matrix(1, 0, 0, 1, 314, 39)"><g clip-path="url(#69dd66eb31)"><g clip-path="url(#d63eb06697)"><g clip-path="url(#4fb8e5a4c4)"><path fill="#ffffff" d="M 418.019531 0.691406 L 924.792969 290.832031 L 507.714844 1019.320312 L 0.941406 729.179688 Z M 418.019531 0.691406 " fill-opacity="1" fill-rule="nonzero"/></g></g></g></g></g></g><path stroke-linecap="butt" transform="matrix(0.375, -0.649519, 0.649519, 0.375, 352.268488, 747.79827)" fill="none" stroke-linejoin="miter" d="M 0.00130598 4.998541 L 953.856029 4.998248 " stroke="#000000" stroke-width="10" stroke-opacity="1" stroke-miterlimit="4"/><g fill="#000000" fill-opacity="1"><g transform="translate(583.191535, 469.959695)"><g><path d="M 81 -176.25 L 116.5 -176.25 L 191.5 0 L 151.25 0 L 135.25 -39.25 L 61.25 -39.25 L 45.25 0 L 6 0 Z M 121.5 -73.25 L 98.25 -130 L 75 -73.25 Z M 121.5 -73.25 "/></g></g></g><g fill="#000000" fill-opacity="1"><g transform="translate(780.689243, 469.959695)"><g><path d="M 21 -175 L 92.5 -175 C 103 -175 112.375 -173.539062 120.625 -170.625 C 128.875 -167.707031 135.875 -163.582031 141.625 -158.25 C 147.375 -152.914062 151.789062 -146.539062 154.875 -139.125 C 157.957031 -131.707031 159.5 -123.5 159.5 -114.5 L 159.5 -114 C 159.5 -103.832031 157.664062 -94.914062 154 -87.25 C 150.332031 -79.582031 145.289062 -73.164062 138.875 -68 C 132.457031 -62.832031 124.957031 -58.957031 116.375 -56.375 C 107.789062 -53.789062 98.582031 -52.5 88.75 -52.5 L 59.5 -52.5 L 59.5 0 L 21 0 Z M 90 -86.75 C 99.664062 -86.75 107.164062 -89.289062 112.5 -94.375 C 117.832031 -99.457031 120.5 -105.75 120.5 -113.25 L 120.5 -113.75 C 120.5 -122.414062 117.707031 -129 112.125 -133.5 C 106.539062 -138 98.914062 -140.25 89.25 -140.25 L 59.5 -140.25 L 59.5 -86.75 Z M 90 -86.75 "/></g></g></g><g fill="#000000" fill-opacity="1"><g transform="translate(947.687257, 469.959695)"><g><path d="M 21 -175 L 153 -175 L 153 -140.75 L 59.25 -140.75 L 59.25 -105.25 L 141.75 -105.25 L 141.75 -71 L 59.25 -71 L 59.25 -34.25 L 154.25 -34.25 L 154.25 0 L 21 0 Z M 21 -175 "/></g></g></g><g fill="#000000" fill-opacity="1"><g transform="translate(1115.185311, 469.959695)"><g><path d="M 21 -175 L 101 -175 C 123.164062 -175 140.164062 -169.082031 152 -157.25 C 162 -147.25 167 -133.914062 167 -117.25 L 167 -116.75 C 167 -102.582031 163.539062 -91.039062 156.625 -82.125 C 149.707031 -73.207031 140.664062 -66.664062 129.5 -62.5 L 172.25 0 L 127.25 0 L 89.75 -56 L 59.5 -56 L 59.5 0 L 21 0 Z M 98.5 -90 C 108 -90 115.289062 -92.25 120.375 -96.75 C 125.457031 -101.25 128 -107.25 128 -114.75 L 128 -115.25 C 128 -123.582031 125.332031 -129.832031 120 -134 C 114.664062 -138.164062 107.25 -140.25 97.75 -140.25 L 59.5 -140.25 L 59.5 -90 Z M 98.5 -90 "/></g></g></g><g fill="#000000" fill-opacity="1"><g transform="translate(1295.933194, 469.959695)"><g><path d="M 61.75 -139.5 L 8.5 -139.5 L 8.5 -175 L 153.5 -175 L 153.5 -139.5 L 100.25 -139.5 L 100.25 0 L 61.75 0 Z M 61.75 -139.5 "/></g></g></g><g fill="#000000" fill-opacity="1"><g transform="translate(1457.931266, 469.959695)"><g><path d="M 94 2.75 C 70.5 2.75 52 -3.75 38.5 -16.75 C 25 -29.75 18.25 -49.164062 18.25 -75 L 18.25 -175 L 56.75 -175 L 56.75 -76 C 56.75 -61.664062 60.082031 -50.875 66.75 -43.625 C 73.414062 -36.375 82.664062 -32.75 94.5 -32.75 C 106.332031 -32.75 115.582031 -36.25 122.25 -43.25 C 128.914062 -50.25 132.25 -60.75 132.25 -74.75 L 132.25 -175 L 170.75 -175 L 170.75 -76.25 C 170.75 -62.914062 168.957031 -51.332031 165.375 -41.5 C 161.789062 -31.664062 156.664062 -23.457031 150 -16.875 C 143.332031 -10.289062 135.25 -5.375 125.75 -2.125 C 116.25 1.125 105.664062 2.75 94 2.75 Z M 94 2.75 "/></g></g></g><g fill="#000000" fill-opacity="1"><g transform="translate(1646.928969, 469.959695)"><g><path d="M 21 -175 L 101 -175 C 123.164062 -175 140.164062 -169.082031 152 -157.25 C 162 -147.25 167 -133.914062 167 -117.25 L 167 -116.75 C 167 -102.582031 163.539062 -91.039062 156.625 -82.125 C 149.707031 -73.207031 140.664062 -66.664062 129.5 -62.5 L 172.25 0 L 127.25 0 L 89.75 -56 L 59.5 -56 L 59.5 0 L 21 0 Z M 98.5 -90 C 108 -90 115.289062 -92.25 120.375 -96.75 C 125.457031 -101.25 128 -107.25 128 -114.75 L 128 -115.25 C 128 -123.582031 125.332031 -129.832031 120 -134 C 114.664062 -138.164062 107.25 -140.25 97.75 -140.25 L 59.5 -140.25 L 59.5 -90 Z M 98.5 -90 "/></g></g></g><g fill="#000000" fill-opacity="1"><g transform="translate(1827.676853, 469.959695)"><g><path d="M 21 -175 L 153 -175 L 153 -140.75 L 59.25 -140.75 L 59.25 -105.25 L 141.75 -105.25 L 141.75 -71 L 59.25 -71 L 59.25 -34.25 L 154.25 -34.25 L 154.25 0 L 21 0 Z M 21 -175 "/></g></g></g><g fill="#000000" fill-opacity="1"><g transform="translate(805.893065, 593.110238)"><g><path d="M 14.84375 -105 L 54.15625 -105 C 60.050781 -105 65.421875 -104.222656 70.265625 -102.671875 C 75.117188 -101.117188 79.269531 -98.914062 82.71875 -96.0625 C 86.175781 -93.21875 88.828125 -89.742188 90.671875 -85.640625 C 92.523438 -81.546875 93.453125 -76.898438 93.453125 -71.703125 L 93.453125 -71.40625 C 93.453125 -65.695312 92.347656 -60.71875 90.140625 -56.46875 C 87.941406 -52.21875 84.96875 -48.644531 81.21875 -45.75 C 77.46875 -42.851562 73.09375 -40.675781 68.09375 -39.21875 C 63.09375 -37.769531 57.796875 -37.046875 52.203125 -37.046875 L 26.703125 -37.046875 L 26.703125 0 L 14.84375 0 Z M 52.65625 -47.84375 C 56.945312 -47.84375 60.867188 -48.394531 64.421875 -49.5 C 67.972656 -50.601562 71.023438 -52.175781 73.578125 -54.21875 C 76.128906 -56.269531 78.078125 -58.695312 79.421875 -61.5 C 80.773438 -64.300781 81.453125 -67.453125 81.453125 -70.953125 L 81.453125 -71.25 C 81.453125 -78.75 78.875 -84.421875 73.71875 -88.265625 C 68.570312 -92.117188 61.75 -94.046875 53.25 -94.046875 L 26.703125 -94.046875 L 26.703125 -47.84375 Z M 52.65625 -47.84375 "/></g></g></g><g fill="#000000" fill-opacity="1"><g transform="translate(906.093088, 593.110238)"><g><path d="M 12.90625 -109.5 L 24.453125 -109.5 L 24.453125 -64.046875 C 27.046875 -68.242188 30.441406 -71.816406 34.640625 -74.765625 C 38.847656 -77.722656 44.300781 -79.203125 51 -79.203125 C 55.695312 -79.203125 59.867188 -78.453125 63.515625 -76.953125 C 67.171875 -75.453125 70.273438 -73.328125 72.828125 -70.578125 C 75.378906 -67.828125 77.328125 -64.550781 78.671875 -60.75 C 80.023438 -56.945312 80.703125 -52.75 80.703125 -48.15625 L 80.703125 0 L 69.15625 0 L 69.15625 -45.296875 C 69.15625 -52.492188 67.300781 -58.191406 63.59375 -62.390625 C 59.894531 -66.597656 54.597656 -68.703125 47.703125 -68.703125 C 44.398438 -68.703125 41.320312 -68.125 38.46875 -66.96875 C 35.625 -65.820312 33.148438 -64.171875 31.046875 -62.015625 C 28.953125 -59.867188 27.328125 -57.296875 26.171875 -54.296875 C 25.023438 -51.296875 24.453125 -48 24.453125 -44.40625 L 24.453125 0 L 12.90625 0 Z M 12.90625 -109.5 "/></g></g></g><g fill="#000000" fill-opacity="1"><g transform="translate(998.493092, 593.110238)"><g><path d="M 48.296875 1.796875 C 42.492188 1.796875 37.144531 0.722656 32.25 -1.421875 C 27.351562 -3.578125 23.101562 -6.476562 19.5 -10.125 C 15.894531 -13.769531 13.09375 -18.019531 11.09375 -22.875 C 9.09375 -27.726562 8.09375 -32.90625 8.09375 -38.40625 L 8.09375 -38.703125 C 8.09375 -44.203125 9.09375 -49.398438 11.09375 -54.296875 C 13.09375 -59.203125 15.894531 -63.503906 19.5 -67.203125 C 23.101562 -70.898438 27.378906 -73.820312 32.328125 -75.96875 C 37.273438 -78.125 42.695312 -79.203125 48.59375 -79.203125 C 54.394531 -79.203125 59.769531 -78.125 64.71875 -75.96875 C 69.675781 -73.820312 73.953125 -70.921875 77.546875 -67.265625 C 81.148438 -63.617188 83.953125 -59.367188 85.953125 -54.515625 C 87.953125 -49.671875 88.953125 -44.5 88.953125 -39 L 88.953125 -38.703125 C 88.953125 -33.203125 87.925781 -28 85.875 -23.09375 C 83.820312 -18.195312 80.992188 -13.898438 77.390625 -10.203125 C 73.796875 -6.503906 69.5 -3.578125 64.5 -1.421875 C 59.5 0.722656 54.097656 1.796875 48.296875 1.796875 Z M 48.59375 -8.546875 C 52.800781 -8.546875 56.65625 -9.34375 60.15625 -10.9375 C 63.65625 -12.539062 66.65625 -14.691406 69.15625 -17.390625 C 71.65625 -20.097656 73.601562 -23.25 75 -26.84375 C 76.394531 -30.445312 77.09375 -34.300781 77.09375 -38.40625 L 77.09375 -38.703125 C 77.09375 -42.898438 76.367188 -46.820312 74.921875 -50.46875 C 73.472656 -54.125 71.445312 -57.328125 68.84375 -60.078125 C 66.25 -62.828125 63.203125 -65 59.703125 -66.59375 C 56.203125 -68.195312 52.398438 -69 48.296875 -69 C 44.097656 -69 40.25 -68.195312 36.75 -66.59375 C 33.25 -65 30.273438 -62.847656 27.828125 -60.140625 C 25.378906 -57.441406 23.453125 -54.269531 22.046875 -50.625 C 20.648438 -46.976562 19.953125 -43.101562 19.953125 -39 L 19.953125 -38.703125 C 19.953125 -34.503906 20.675781 -30.578125 22.125 -26.921875 C 23.570312 -23.273438 25.570312 -20.097656 28.125 -17.390625 C 30.675781 -14.691406 33.703125 -12.539062 37.203125 -10.9375 C 40.703125 -9.34375 44.5 -8.546875 48.59375 -8.546875 Z M 48.59375 -8.546875 "/></g></g></g><g fill="#000000" fill-opacity="1"><g transform="translate(1095.393119, 593.110238)"><g><path d="M 38.84375 1.34375 C 35.75 1.34375 32.847656 0.941406 30.140625 0.140625 C 27.441406 -0.648438 25.117188 -1.921875 23.171875 -3.671875 C 21.222656 -5.421875 19.695312 -7.695312 18.59375 -10.5 C 17.5 -13.300781 16.953125 -16.648438 16.953125 -20.546875 L 16.953125 -67.34375 L 6.15625 -67.34375 L 6.15625 -77.546875 L 16.953125 -77.546875 L 16.953125 -100.953125 L 28.5 -100.953125 L 28.5 -77.546875 L 53.09375 -77.546875 L 53.09375 -67.34375 L 28.5 -67.34375 L 28.5 -22.046875 C 28.5 -17.242188 29.695312 -13.894531 32.09375 -12 C 34.5 -10.101562 37.648438 -9.15625 41.546875 -9.15625 C 43.546875 -9.15625 45.421875 -9.351562 47.171875 -9.75 C 48.921875 -10.144531 50.796875 -10.84375 52.796875 -11.84375 L 52.796875 -1.953125 C 50.796875 -0.847656 48.671875 -0.0234375 46.421875 0.515625 C 44.171875 1.066406 41.644531 1.34375 38.84375 1.34375 Z M 38.84375 1.34375 "/></g></g></g><g fill="#000000" fill-opacity="1"><g transform="translate(1153.74313, 593.110238)"><g><path d="M 48.296875 1.796875 C 42.492188 1.796875 37.144531 0.722656 32.25 -1.421875 C 27.351562 -3.578125 23.101562 -6.476562 19.5 -10.125 C 15.894531 -13.769531 13.09375 -18.019531 11.09375 -22.875 C 9.09375 -27.726562 8.09375 -32.90625 8.09375 -38.40625 L 8.09375 -38.703125 C 8.09375 -44.203125 9.09375 -49.398438 11.09375 -54.296875 C 13.09375 -59.203125 15.894531 -63.503906 19.5 -67.203125 C 23.101562 -70.898438 27.378906 -73.820312 32.328125 -75.96875 C 37.273438 -78.125 42.695312 -79.203125 48.59375 -79.203125 C 54.394531 -79.203125 59.769531 -78.125 64.71875 -75.96875 C 69.675781 -73.820312 73.953125 -70.921875 77.546875 -67.265625 C 81.148438 -63.617188 83.953125 -59.367188 85.953125 -54.515625 C 87.953125 -49.671875 88.953125 -44.5 88.953125 -39 L 88.953125 -38.703125 C 88.953125 -33.203125 87.925781 -28 85.875 -23.09375 C 83.820312 -18.195312 80.992188 -13.898438 77.390625 -10.203125 C 73.796875 -6.503906 69.5 -3.578125 64.5 -1.421875 C 59.5 0.722656 54.097656 1.796875 48.296875 1.796875 Z M 48.59375 -8.546875 C 52.800781 -8.546875 56.65625 -9.34375 60.15625 -10.9375 C 63.65625 -12.539062 66.65625 -14.691406 69.15625 -17.390625 C 71.65625 -20.097656 73.601562 -23.25 75 -26.84375 C 76.394531 -30.445312 77.09375 -34.300781 77.09375 -38.40625 L 77.09375 -38.703125 C 77.09375 -42.898438 76.367188 -46.820312 74.921875 -50.46875 C 73.472656 -54.125 71.445312 -57.328125 68.84375 -60.078125 C 66.25 -62.828125 63.203125 -65 59.703125 -66.59375 C 56.203125 -68.195312 52.398438 -69 48.296875 -69 C 44.097656 -69 40.25 -68.195312 36.75 -66.59375 C 33.25 -65 30.273438 -62.847656 27.828125 -60.140625 C 25.378906 -57.441406 23.453125 -54.269531 22.046875 -50.625 C 20.648438 -46.976562 19.953125 -43.101562 19.953125 -39 L 19.953125 -38.703125 C 19.953125 -34.503906 20.675781 -30.578125 22.125 -26.921875 C 23.570312 -23.273438 25.570312 -20.097656 28.125 -17.390625 C 30.675781 -14.691406 33.703125 -12.539062 37.203125 -10.9375 C 40.703125 -9.34375 44.5 -8.546875 48.59375 -8.546875 Z M 48.59375 -8.546875 "/></g></g></g><g fill="#000000" fill-opacity="1"><g transform="translate(1250.643134, 593.110238)"><g><path d="M 47.25 24.296875 C 40.75 24.296875 34.546875 23.394531 28.640625 21.59375 C 22.742188 19.800781 17.195312 17.101562 12 13.5 L 17.25 4.5 C 21.75 7.695312 26.445312 10.144531 31.34375 11.84375 C 36.25 13.550781 41.5 14.40625 47.09375 14.40625 C 55.695312 14.40625 62.546875 12.078125 67.640625 7.421875 C 72.742188 2.773438 75.296875 -4.097656 75.296875 -13.203125 L 75.296875 -22.34375 C 71.898438 -17.84375 67.75 -13.992188 62.84375 -10.796875 C 57.945312 -7.597656 51.945312 -6 44.84375 -6 C 40.144531 -6 35.617188 -6.847656 31.265625 -8.546875 C 26.921875 -10.242188 23.046875 -12.664062 19.640625 -15.8125 C 16.242188 -18.96875 13.519531 -22.769531 11.46875 -27.21875 C 9.425781 -31.675781 8.40625 -36.703125 8.40625 -42.296875 L 8.40625 -42.59375 C 8.40625 -48.300781 9.425781 -53.40625 11.46875 -57.90625 C 13.519531 -62.40625 16.242188 -66.226562 19.640625 -69.375 C 23.046875 -72.519531 26.945312 -74.941406 31.34375 -76.640625 C 35.75 -78.347656 40.25 -79.203125 44.84375 -79.203125 C 48.445312 -79.203125 51.773438 -78.773438 54.828125 -77.921875 C 57.878906 -77.078125 60.628906 -75.953125 63.078125 -74.546875 C 65.523438 -73.148438 67.75 -71.5 69.75 -69.59375 C 71.75 -67.695312 73.550781 -65.695312 75.15625 -63.59375 L 75.15625 -77.546875 L 86.703125 -77.546875 L 86.703125 -13.5 C 86.703125 -7.5 85.847656 -2.222656 84.140625 2.328125 C 82.441406 6.878906 79.992188 10.753906 76.796875 13.953125 C 73.296875 17.453125 69.046875 20.050781 64.046875 21.75 C 59.046875 23.445312 53.445312 24.296875 47.25 24.296875 Z M 47.09375 -16.203125 C 50.800781 -16.203125 54.351562 -16.828125 57.75 -18.078125 C 61.144531 -19.328125 64.164062 -21.125 66.8125 -23.46875 C 69.46875 -25.820312 71.59375 -28.597656 73.1875 -31.796875 C 74.789062 -34.992188 75.59375 -38.546875 75.59375 -42.453125 L 75.59375 -42.75 C 75.59375 -46.75 74.789062 -50.347656 73.1875 -53.546875 C 71.59375 -56.742188 69.46875 -59.492188 66.8125 -61.796875 C 64.164062 -64.097656 61.144531 -65.875 57.75 -67.125 C 54.351562 -68.375 50.800781 -69 47.09375 -69 C 43.394531 -69 39.921875 -68.375 36.671875 -67.125 C 33.421875 -65.875 30.570312 -64.125 28.125 -61.875 C 25.675781 -59.625 23.75 -56.898438 22.34375 -53.703125 C 20.945312 -50.503906 20.25 -46.90625 20.25 -42.90625 L 20.25 -42.59375 C 20.25 -38.695312 20.972656 -35.125 22.421875 -31.875 C 23.867188 -28.625 25.816406 -25.847656 28.265625 -23.546875 C 30.722656 -21.242188 33.578125 -19.441406 36.828125 -18.140625 C 40.078125 -16.847656 43.5 -16.203125 47.09375 -16.203125 Z M 47.09375 -16.203125 "/></g></g></g><g fill="#000000" fill-opacity="1"><g transform="translate(1350.243166, 593.110238)"><g><path d="M 12.90625 -77.546875 L 24.453125 -77.546875 L 24.453125 -57.296875 C 25.847656 -60.492188 27.59375 -63.441406 29.6875 -66.140625 C 31.789062 -68.847656 34.191406 -71.175781 36.890625 -73.125 C 39.597656 -75.070312 42.550781 -76.546875 45.75 -77.546875 C 48.945312 -78.546875 52.394531 -79 56.09375 -78.90625 L 56.09375 -66.453125 L 55.203125 -66.453125 C 51.003906 -66.453125 47.03125 -65.703125 43.28125 -64.203125 C 39.53125 -62.703125 36.253906 -60.453125 33.453125 -57.453125 C 30.648438 -54.453125 28.445312 -50.722656 26.84375 -46.265625 C 25.25 -41.816406 24.453125 -36.695312 24.453125 -30.90625 L 24.453125 0 L 12.90625 0 Z M 12.90625 -77.546875 "/></g></g></g><g fill="#000000" fill-opacity="1"><g transform="translate(1407.243163, 593.110238)"><g><path d="M 36 1.65625 C 32.394531 1.65625 28.867188 1.15625 25.421875 0.15625 C 21.972656 -0.84375 18.875 -2.367188 16.125 -4.421875 C 13.375 -6.472656 11.171875 -9 9.515625 -12 C 7.867188 -15 7.046875 -18.5 7.046875 -22.5 L 7.046875 -22.796875 C 7.046875 -26.898438 7.84375 -30.5 9.4375 -33.59375 C 11.039062 -36.695312 13.316406 -39.296875 16.265625 -41.390625 C 19.222656 -43.492188 22.722656 -45.09375 26.765625 -46.1875 C 30.816406 -47.289062 35.296875 -47.84375 40.203125 -47.84375 C 45.203125 -47.84375 49.550781 -47.539062 53.25 -46.9375 C 56.945312 -46.34375 60.546875 -45.546875 64.046875 -44.546875 L 64.046875 -47.25 C 64.046875 -54.25 62.019531 -59.523438 57.96875 -63.078125 C 53.925781 -66.628906 48.253906 -68.40625 40.953125 -68.40625 C 36.347656 -68.40625 32.171875 -67.878906 28.421875 -66.828125 C 24.671875 -65.773438 21 -64.398438 17.40625 -62.703125 L 13.953125 -72.15625 C 18.253906 -74.15625 22.601562 -75.726562 27 -76.875 C 31.394531 -78.019531 36.445312 -78.59375 42.15625 -78.59375 C 53.15625 -78.59375 61.503906 -75.742188 67.203125 -70.046875 C 72.503906 -64.742188 75.15625 -57.195312 75.15625 -47.40625 L 75.15625 0 L 64.046875 0 L 64.046875 -11.703125 C 61.347656 -8.203125 57.722656 -5.097656 53.171875 -2.390625 C 48.617188 0.304688 42.894531 1.65625 36 1.65625 Z M 38.25 -7.5 C 41.851562 -7.5 45.226562 -8.023438 48.375 -9.078125 C 51.519531 -10.128906 54.269531 -11.578125 56.625 -13.421875 C 58.976562 -15.273438 60.828125 -17.472656 62.171875 -20.015625 C 63.523438 -22.566406 64.203125 -25.394531 64.203125 -28.5 L 64.203125 -36 C 61.296875 -36.800781 57.96875 -37.550781 54.21875 -38.25 C 50.46875 -38.945312 46.195312 -39.296875 41.40625 -39.296875 C 34.101562 -39.296875 28.5 -37.84375 24.59375 -34.9375 C 20.695312 -32.039062 18.75 -28.144531 18.75 -23.25 L 18.75 -22.953125 C 18.75 -20.546875 19.273438 -18.367188 20.328125 -16.421875 C 21.378906 -14.472656 22.800781 -12.847656 24.59375 -11.546875 C 26.394531 -10.242188 28.46875 -9.242188 30.8125 -8.546875 C 33.164062 -7.847656 35.644531 -7.5 38.25 -7.5 Z M 38.25 -7.5 "/></g></g></g><g fill="#000000" fill-opacity="1"><g transform="translate(1494.093195, 593.110238)"><g><path d="M 12.90625 -77.546875 L 24.453125 -77.546875 L 24.453125 -61.953125 C 26.046875 -64.253906 27.816406 -66.453125 29.765625 -68.546875 C 31.722656 -70.648438 33.898438 -72.472656 36.296875 -74.015625 C 38.703125 -75.566406 41.378906 -76.816406 44.328125 -77.765625 C 47.273438 -78.722656 50.550781 -79.203125 54.15625 -79.203125 C 58.75 -79.203125 63.269531 -78.300781 67.71875 -76.5 C 72.175781 -74.695312 76.15625 -72.070312 79.65625 -68.625 C 83.15625 -65.175781 85.953125 -60.972656 88.046875 -56.015625 C 90.148438 -51.066406 91.203125 -45.394531 91.203125 -39 L 91.203125 -38.703125 C 91.203125 -32.398438 90.148438 -26.75 88.046875 -21.75 C 85.953125 -16.75 83.175781 -12.523438 79.71875 -9.078125 C 76.269531 -5.628906 72.320312 -2.976562 67.875 -1.125 C 63.425781 0.726562 58.851562 1.65625 54.15625 1.65625 C 50.550781 1.65625 47.25 1.203125 44.25 0.296875 C 41.25 -0.597656 38.546875 -1.796875 36.140625 -3.296875 C 33.742188 -4.796875 31.570312 -6.546875 29.625 -8.546875 C 27.675781 -10.546875 25.953125 -12.644531 24.453125 -14.84375 L 24.453125 24 L 12.90625 24 Z M 52.046875 -8.703125 C 55.742188 -8.703125 59.269531 -9.375 62.625 -10.71875 C 65.976562 -12.070312 68.878906 -14.023438 71.328125 -16.578125 C 73.773438 -19.128906 75.722656 -22.253906 77.171875 -25.953125 C 78.617188 -29.648438 79.34375 -33.847656 79.34375 -38.546875 L 79.34375 -38.84375 C 79.34375 -43.445312 78.617188 -47.597656 77.171875 -51.296875 C 75.722656 -54.992188 73.75 -58.144531 71.25 -60.75 C 68.75 -63.351562 65.847656 -65.351562 62.546875 -66.75 C 59.242188 -68.144531 55.742188 -68.84375 52.046875 -68.84375 C 48.453125 -68.84375 44.976562 -68.117188 41.625 -66.671875 C 38.269531 -65.222656 35.269531 -63.171875 32.625 -60.515625 C 29.976562 -57.867188 27.878906 -54.71875 26.328125 -51.0625 C 24.773438 -47.414062 24 -43.394531 24 -39 L 24 -38.703125 C 24 -34.203125 24.773438 -30.097656 26.328125 -26.390625 C 27.878906 -22.691406 29.976562 -19.539062 32.625 -16.9375 C 35.269531 -14.34375 38.269531 -12.320312 41.625 -10.875 C 44.976562 -9.425781 48.453125 -8.703125 52.046875 -8.703125 Z M 52.046875 -8.703125 "/></g></g></g><g fill="#000000" fill-opacity="1"><g transform="translate(1593.693227, 593.110238)"><g><path d="M 12.90625 -109.5 L 24.453125 -109.5 L 24.453125 -64.046875 C 27.046875 -68.242188 30.441406 -71.816406 34.640625 -74.765625 C 38.847656 -77.722656 44.300781 -79.203125 51 -79.203125 C 55.695312 -79.203125 59.867188 -78.453125 63.515625 -76.953125 C 67.171875 -75.453125 70.273438 -73.328125 72.828125 -70.578125 C 75.378906 -67.828125 77.328125 -64.550781 78.671875 -60.75 C 80.023438 -56.945312 80.703125 -52.75 80.703125 -48.15625 L 80.703125 0 L 69.15625 0 L 69.15625 -45.296875 C 69.15625 -52.492188 67.300781 -58.191406 63.59375 -62.390625 C 59.894531 -66.597656 54.597656 -68.703125 47.703125 -68.703125 C 44.398438 -68.703125 41.320312 -68.125 38.46875 -66.96875 C 35.625 -65.820312 33.148438 -64.171875 31.046875 -62.015625 C 28.953125 -59.867188 27.328125 -57.296875 26.171875 -54.296875 C 25.023438 -51.296875 24.453125 -48 24.453125 -44.40625 L 24.453125 0 L 12.90625 0 Z M 12.90625 -109.5 "/></g></g></g><g fill="#000000" fill-opacity="1"><g transform="translate(1683.843277, 593.110238)"><g><path d="M 70.953125 -77.546875 L 83.25 -77.546875 L 50.703125 2.546875 C 47.398438 10.546875 43.722656 16.195312 39.671875 19.5 C 35.617188 22.800781 30.695312 24.453125 24.90625 24.453125 C 21.695312 24.453125 18.789062 24.125 16.1875 23.46875 C 13.59375 22.820312 11 21.847656 8.40625 20.546875 L 12.296875 11.40625 C 14.203125 12.40625 16.078125 13.128906 17.921875 13.578125 C 19.773438 14.023438 21.953125 14.25 24.453125 14.25 C 27.953125 14.25 30.898438 13.195312 33.296875 11.09375 C 35.703125 9 38.050781 5.203125 40.34375 -0.296875 L 5.09375 -77.546875 L 17.84375 -77.546875 L 46.046875 -12.90625 Z M 70.953125 -77.546875 "/></g></g></g></svg>